<svg version="1.1"
  xmlns="http://www.w3.org/2000/svg" viewBox="0 0 64 64" width="128" height="128">
  <g id="Calendar-2" data-name="Calendar">
    <!--上方翻页的填充-->
    <path fill="#E36357" d="m51 5v8a2 2 0 0 0 4 0v-8a2.015 2.015 0 0 0 -2-2 2.006 2.006 0 0 0 -2 2z"></path>
    <path fill="#E36357" d="m30 5v8a2 2 0 0 0 4 0v-8a2.015 2.015 0 0 0 -2-2 2.006 2.006 0 0 0 -2 2z"></path>
    <path fill="#E36357" d="m9 5v8a2 2 0 0 0 4 0v-8a2.015 2.015 0 0 0 -2-2 2.006 2.006 0 0 0 -2 2z"></path>

    <!--日期位置背景色-->
    <path fill="#eee" d="m32 21h-29v10h44v30h12a2.006 2.006 0 0 0 2-2v-38z"></path>

    <g>
      <!--播放器圆圈-->
      <circle fill="#bbb" cx="21" cy="39" r="4"></circle>
      <circle fill="#bbb" cx="13" cy="39" r="4"></circle>
      <!--圆圈内方-->
      <!-- <path fill="#333" d="m12 38h2v2h-2z"></path>
      <path fill="#333" d="m20 38h2v2h-2z"></path> -->
      <!--放映机横条-->
      <!-- <path fill="#333" d="m10 46h6v2h-6z"></path>
      <path fill="#333" d="m10 52h6v2h-6z"></path>
      <path fill="#333" d="m18 46h6v2h-6z"></path>
      <path fill="#333" d="m18 52h6v2h-6z"></path> -->
      <!--放映机填充-->
      <path fill="#bbb" d="m7 45v10a2.006 2.006 0 0 0 2 2h16a2.006 2.006 0 0 0 2-2v-1l6 2v-12l-6 2v-1a2.006 2.006 0 0 0 -2-2h-16a2.006 2.006 0 0 0 -2 2z"></path>
      <!--放映机轮廓-->
      <path fill="#333" d="m33.584 43.189a1 1 0 0 0 -.9-.138l-4.722 1.574a2.994 2.994 0 0 0 -2.962-2.625h-.026a4.948 4.948 0 0 0 1.026-3 4.985 4.985 0 0 0 -9-2.969 4.981 4.981 0 1 0 -7.974 5.969h-.026a3 3 0 0 0 -3 3v10a3 3 0 0 0 3 3h16a2.994 2.994 0 0 0 2.962-2.625l4.722 1.574a1.01 1.01 0 0 0 .316.051 1 1 0 0 0 1-1v-12a1 1 0 0 0 -.416-.811zm-12.584-7.189a3 3 0 1 1 -3 3 3 3 0 0 1 3-3zm-3.974 6h-.052c.009-.011.018-.02.026-.031.008.011.017.02.026.031zm-7.026-3a3 3 0 1 1 3 3 3 3 0 0 1 -3-3zm16 16a1 1 0 0 1 -1 1h-16a1 1 0 0 1 -1-1v-10a1 1 0 0 1 1-1h16a1 1 0 0 1 1 1zm6-.387-4-1.334v-6.558l4-1.334z"></path>


      <!-- 有活动-->
      <circle fill="#C8392B" cx="50" cy="24" r="1"></circle>
      <circle fill="#C8392B" cx="50" cy="34" r="1"></circle>
      <circle fill="#8939F4" cx="53" cy="34" r="1"></circle>

      <path fill="#333" d="m59 8h-3v-3a3 3 0 0 0 -6 0v3h-15v-3a3 3 0 0 0 -6 0v3h-15v-3a3 3 0 0 0 -6 0v3h-3a3 3 0 0 0 -3 3v48a3 3 0 0 0 3 3h54a3 3 0 0 0 3-3v-48a3 3 0 0 0 -3-3zm-7-3a1 1 0 0 1 2 0v8a1 1 0 0 1 -2 0zm-21 0a1 1 0 0 1 2 0v8a1 1 0 0 1 -2 0zm-21 0a1 1 0 0 1 2 0v8a1 1 0 0 1 -2 0zm-5 5h3v3a3 3 0 0 0 6 0v-3h15v3a3 3 0 0 0 6 0v-3h15v3a3 3 0 0 0 6 0v-3h3a1 1 0 0 1 1 1v9h-56v-9a1 1 0 0 1 1-1zm43 30v-8h12v8zm12 2v8h-12v-8zm-12-12v-8h12v8zm-44 0v-8h12v8zm14-8h13v8h-13zm15 0h13v8h-13zm-29 37v-27h42v8h-10v2h10v8h-10v2h10v8h-41a1 1 0 0 1 -1-1zm55 1h-11v-8h12v7a1 1 0 0 1 -1 1z"></path>
    </g>
  </g>
</svg>